<svg id="Capa_1" enable-background="new 0 0 512 512" height="512" viewBox="0 0 512 512" width="512" xmlns="http://www.w3.org/2000/svg"><g><g><path clip-rule="evenodd" d="m90.975 360.07 80.805-37.651 14.404-47.312-28.545-72.344-71.378-27.579c-.498 3.865-.644 7.7-.732 12.648-1.083 62.009 17.772 99.309 5.446 172.238z" fill="#fe8607" fill-rule="evenodd"/></g><g><path clip-rule="evenodd" d="m151.93 421.026c72.93-12.326 110.229 6.529 172.238 5.446 4.948-.088 8.754-.234 12.618-.732l-33.259-79.136-66.635-20.787-50.298 24.798z" fill="#fe8607" fill-rule="evenodd"/></g><g><path clip-rule="evenodd" d="m284.088 386.391c-35.66.615-63.151-5.358-93.951-8.198l-38.207 42.833c72.93-12.326 110.229 6.529 172.238 5.446 4.948-.088 8.754-.234 12.618-.732l-40.08-40.081c-3.864.497-7.67.644-12.618.732z" fill="#f46700" fill-rule="evenodd"/></g><g><path clip-rule="evenodd" d="m14.65 497.351c19.03 19.001 51.264 20.055 69.182 0l21.343-23.92-23.802-41.486-42.803-25.12-23.92 21.344c-6.88 6.177-11.301 14.024-13.321 22.426-1.786 7.378-1.757 15.166 0 22.661 2.078 8.871 6.558 17.303 13.321 24.095z" fill="#fec165" fill-rule="evenodd"/></g><g><path clip-rule="evenodd" d="m83.217 451.474-21.343 23.92c-14.346 16.073-37.855 18.591-56.417 9.222 2.342 4.626 5.416 8.93 9.193 12.736 19.03 19.001 51.264 20.055 69.182 0l21.343-23.92z" fill="#fea610" fill-rule="evenodd"/></g><g><path clip-rule="evenodd" d="m151.93 421.026 84.963-95.21-6.88-43.272-43.828-7.436-95.21 84.962-13.233 11.799 14.229 47.341 48.161 15.049z" fill="#fec165" fill-rule="evenodd"/></g><g><path clip-rule="evenodd" d="m214.935 303.887-84.962 95.181-11.799 13.233 21.958 21.958 11.798-13.233 84.963-95.21z" fill="#fea610" fill-rule="evenodd"/></g><g><path clip-rule="evenodd" d="m38.569 406.826 66.606 66.606 34.957-39.173-62.39-62.39z" fill="#fb2a39" fill-rule="evenodd"/></g><g><path clip-rule="evenodd" d="m118.174 412.301-10.54 11.799-18.708 20.991-5.709 6.383 21.958 21.958 34.957-39.173z" fill="#dd003a" fill-rule="evenodd"/></g><g><path clip-rule="evenodd" d="m86.262 175.184 99.923 99.923 50.708 50.708 99.894 99.923c5.416-.732 10.92-2.196 19.791-5.387 11.36-4.07 22.28-9.164 32.703-15.195 4.362 3.572 73.135-51.938 88.037-90.496 9.603-16.776 17.537-34.723 23.568-53.49 25.325-78.756 5.973-156.311-43.828-206.229-49.918-49.799-127.473-69.151-206.229-43.827-73.222 23.539-134.734 76.062-159.18 144.308-3.162 8.871-4.655 14.346-5.387 19.762z" fill="#fb2a39" fill-rule="evenodd"/></g><g><path clip-rule="evenodd" d="m349.23 365.106c-10.13 5.826-20.728 10.803-31.707 14.814-.351.117-.673.234-.995.351-8.9 3.191-14.404 4.655-19.821 5.387l40.08 40.081c5.416-.732 10.92-2.196 19.791-5.387 11.36-4.07 22.28-9.164 32.703-15.195 4.362 3.572 73.135-51.938 88.037-90.496 9.603-16.776 17.537-34.723 23.568-53.49 25.325-78.756 5.973-156.311-43.828-206.229-6.734-6.704-13.965-12.853-21.636-18.415 35.747 49.186 47.283 116.436 25.383 184.593-6.031 18.737-13.965 36.684-23.539 53.49-14.931 38.529-83.703 94.038-88.036 90.496z" fill="#dd003a" fill-rule="evenodd"/></g><g><path clip-rule="evenodd" d="m446.313 438.241c36.187 0 65.669-29.482 65.669-65.669 0-36.157-29.482-65.669-65.669-65.669-36.157 0-65.669 29.511-65.669 65.669 0 36.186 29.511 65.669 65.669 65.669z" fill="#f8f2f0" fill-rule="evenodd"/></g><g><path clip-rule="evenodd" d="m446.313 306.903c-3.279 0-6.529.234-9.691.703 12.677 5.094 23.393 14.024 30.712 25.354 6.646 10.276 10.481 22.485 10.481 35.63 0 32.966-24.3 60.253-55.978 64.937 7.583 3.045 15.839 4.714 24.476 4.714 36.274 0 65.669-29.394 65.669-65.669 0-25.061-14.024-46.814-34.664-57.91-9.223-4.949-19.792-7.759-31.005-7.759z" fill="#eee1dc" fill-rule="evenodd"/></g></g></svg>